<svg width="198" height="40" viewBox="0 0 198 40" fill="none" xmlns="http://www.w3.org/2000/svg">
<circle cx="20" cy="20" r="20" fill="#6A6A6A"/>
<circle cx="72.5" cy="20" r="20" fill="#6A6A6A"/>
<circle cx="125" cy="20" r="20" fill="#6A6A6A"/>
<circle cx="177.5" cy="20" r="20" fill="#6A6A6A"/>
<path d="M77.1258 13.9336C76.5573 13.9336 76.1026 14.3949 76.1026 14.9604C76.1026 15.5308 76.5623 15.9872 77.1258 15.9872C77.6942 15.9872 78.149 15.5259 78.149 14.9604C78.1539 14.3949 77.6942 13.9336 77.1258 13.9336Z" fill="white"/>
<path d="M72.5681 15.2529C70.1954 15.2529 68.2627 17.1924 68.2627 19.5734C68.2627 21.9543 70.1954 23.8938 72.5681 23.8938C74.9407 23.8938 76.8734 21.9543 76.8734 19.5734C76.8734 17.1924 74.9407 15.2529 72.5681 15.2529ZM72.5681 22.3462C71.0456 22.3462 69.8099 21.1061 69.8099 19.5783C69.8099 18.0505 71.0456 16.8105 72.5681 16.8105C74.0905 16.8105 75.3263 18.0505 75.3263 19.5783C75.3263 21.1011 74.0905 22.3462 72.5681 22.3462Z" fill="white"/>
<path d="M75.9889 28.3534H69.0044C66.1078 28.3534 63.75 25.9873 63.75 23.0806V16.0716C63.75 13.1649 66.1078 10.7988 69.0044 10.7988H75.9889C78.8855 10.7988 81.2433 13.1649 81.2433 16.0716V23.0806C81.2384 25.9873 78.8855 28.3534 75.9889 28.3534ZM69.0044 12.4506C67.0173 12.4506 65.396 14.0726 65.396 16.0716V23.0806C65.396 25.0746 67.0124 26.7016 69.0044 26.7016H75.9889C77.9809 26.7016 79.5973 25.0796 79.5973 23.0806V16.0716C79.5973 14.0776 77.9809 12.4506 75.9889 12.4506H69.0044Z" fill="white"/>
<path d="M23.7541 20.6713L24.2385 17.4967H21.2035V15.4332C21.2035 14.5652 21.6286 13.717 22.9879 13.717H24.367V11.0136C24.367 11.0136 23.1164 10.8003 21.9153 10.8003C19.4141 10.8003 17.778 12.3231 17.778 15.0761V17.4967H15V20.6713H17.778V28.3499H21.1985V20.6713H23.7541Z" fill="white"/>
<path d="M136.16 12.9067C135.483 13.2143 134.741 13.3978 134.01 13.5218C134.356 13.4623 134.865 12.8373 135.067 12.5793C135.379 12.1924 135.636 11.751 135.779 11.2748C135.799 11.2351 135.814 11.1905 135.774 11.1607C135.73 11.1409 135.695 11.1508 135.661 11.1706C134.85 11.6071 134.01 11.9246 133.11 12.1478C133.036 12.1676 132.981 12.1478 132.932 12.1032C132.858 12.0188 132.789 11.9395 132.71 11.875C132.334 11.5526 131.929 11.2996 131.474 11.1161C130.876 10.873 130.223 10.7688 129.581 10.8085C128.953 10.8482 128.34 11.0268 127.786 11.3194C127.228 11.6121 126.733 12.0188 126.338 12.5049C125.928 13.0109 125.626 13.6111 125.473 14.246C125.325 14.8561 125.335 15.4613 125.428 16.0813C125.443 16.1855 125.433 16.1954 125.34 16.1855C121.84 15.6647 118.938 14.4047 116.585 11.7163C116.482 11.5972 116.427 11.5972 116.343 11.7262C115.315 13.2738 115.814 15.7639 117.1 16.9891C117.273 17.1528 117.446 17.3165 117.638 17.4653C117.569 17.4801 116.714 17.3859 115.948 16.9891C115.844 16.9246 115.795 16.9593 115.785 17.0784C115.775 17.247 115.79 17.4008 115.814 17.5794C116.012 19.1518 117.095 20.6051 118.582 21.1706C118.76 21.245 118.953 21.3095 119.146 21.3442C118.81 21.4186 118.459 21.4732 117.49 21.3938C117.371 21.369 117.322 21.4335 117.371 21.5476C118.098 23.5417 119.675 24.1369 120.851 24.4742C121.009 24.504 121.168 24.504 121.326 24.5387C121.316 24.5536 121.306 24.5536 121.296 24.5684C120.906 25.1686 119.551 25.6101 118.919 25.8333C117.772 26.2351 116.521 26.4186 115.31 26.2996C115.117 26.2698 115.073 26.2748 115.023 26.2996C114.969 26.3343 115.019 26.379 115.078 26.4286C115.325 26.5923 115.572 26.7361 115.829 26.875C116.6 27.2867 117.401 27.6091 118.241 27.8423C122.581 29.0426 127.465 28.1597 130.722 24.9157C133.278 22.3661 134.178 18.8492 134.178 15.3274C134.178 15.1885 134.341 15.1141 134.435 15.0397C135.102 14.5387 135.636 13.9385 136.135 13.2688C136.249 13.12 136.249 12.9861 136.249 12.9315C136.249 12.9216 136.249 12.9117 136.249 12.9117C136.249 12.8522 136.249 12.8671 136.16 12.9067Z" fill="white"/>
<path fill-rule="evenodd" clip-rule="evenodd" d="M176.904 22.2408C176.889 22.2904 176.875 22.3351 176.865 22.3747C176.222 24.8995 176.153 25.4601 175.491 26.6357C175.174 27.1912 174.823 27.722 174.428 28.2279C174.383 28.2874 174.344 28.3569 174.255 28.342C174.156 28.3222 174.151 28.2329 174.141 28.1585C174.037 27.3896 173.978 26.6208 174.003 25.847C174.037 24.84 174.161 24.4928 175.456 19.0216C175.476 18.9372 175.456 18.8678 175.426 18.7934C175.115 17.9551 175.056 17.1019 175.327 16.2339C175.916 14.3688 178.021 14.225 178.392 15.7626C178.62 16.715 178.016 17.9601 177.557 19.8053C177.176 21.3232 178.956 22.4045 180.483 21.2984C181.887 20.2765 182.436 17.8212 182.332 16.0851C182.129 12.6178 178.343 11.8688 175.94 12.9849C173.187 14.2646 172.559 17.6872 173.805 19.2547C173.963 19.4531 174.082 19.5771 174.032 19.7755C173.953 20.088 173.884 20.4055 173.795 20.718C173.731 20.9511 173.538 21.0355 173.306 20.9412C172.846 20.7577 172.465 20.4601 172.154 20.0781C171.096 18.7636 170.795 16.1694 172.194 13.972C173.741 11.5365 176.618 10.5543 179.247 10.8519C182.386 11.2091 184.368 13.3619 184.739 15.8023C184.907 16.9134 184.788 19.6565 183.231 21.596C181.442 23.8232 178.54 23.972 177.206 22.6029C177.087 22.4888 177.008 22.3648 176.904 22.2408Z" fill="white"/>
</svg>
