<svg width="94" height="21" viewBox="0 0 94 21" fill="none" xmlns="http://www.w3.org/2000/svg">
<path d="M0.729126 1.90298V1.63631H5.35713V1.90298H4.08313V20.0363H5.35713V20.303H0.729126V20.0363H1.92513V1.90298H0.729126Z" fill="#3C3C3C"/>
<path d="M16.048 20.303H15.736L23.51 1.63631L23.796 1.50298L30.348 20.303H28.138L26.11 14.4363H18.518L16.048 20.303ZM22.704 4.51631L18.622 14.1696H26.032L22.704 4.51631Z" fill="#3C3C3C"/>
<path d="M37.4667 7.07631C36.2361 7.07631 35.2047 7.68076 34.3727 8.88965C33.5581 10.0985 33.1507 11.7696 33.1507 13.903C33.1507 16.0363 33.5234 17.6185 34.2687 18.6496C35.0314 19.6808 36.0281 20.1963 37.2587 20.1963C38.8014 20.1963 40.1707 19.9296 41.3667 19.3963L41.4447 19.583C40.2141 20.1341 38.7754 20.4096 37.1287 20.4096C35.4821 20.4096 34.1127 19.8763 33.0207 18.8096C31.9287 17.743 31.3827 16.0985 31.3827 13.8763C31.3827 11.6541 31.9547 9.92965 33.0987 8.70298C34.2427 7.47631 35.6987 6.86298 37.4667 6.86298C38.4547 6.86298 39.3647 7.09409 40.1967 7.55631C41.0461 8.01854 41.6701 8.72076 42.0687 9.66298H40.4047C40.1447 8.79187 39.746 8.14298 39.2087 7.71631C38.6887 7.28965 38.1081 7.07631 37.4667 7.07631Z" fill="#3C3C3C"/>
<path d="M49.5545 20.4096C47.7345 20.4096 46.2525 19.8763 45.1085 18.8096C43.9645 17.743 43.3925 16.0985 43.3925 13.8763C43.3925 11.6541 43.9818 9.92965 45.1605 8.70298C46.3565 7.47631 47.8645 6.86298 49.6845 6.86298C51.5218 6.86298 53.0125 7.39631 54.1565 8.46298C55.3005 9.52965 55.8725 11.1741 55.8725 13.3963C55.8725 15.6185 55.2745 17.343 54.0785 18.5696C52.8998 19.7963 51.3918 20.4096 49.5545 20.4096ZM49.7365 7.07631C48.4192 7.07631 47.3272 7.68076 46.4605 8.88965C45.5938 10.0808 45.1605 11.7519 45.1605 13.903C45.1605 16.0363 45.5591 17.6185 46.3565 18.6496C47.1538 19.6808 48.2111 20.1963 49.5285 20.1963C50.8458 20.1963 51.9378 19.6008 52.8045 18.4096C53.6712 17.2008 54.1045 15.5296 54.1045 13.3963C54.1045 11.2452 53.7058 9.65409 52.9085 8.62298C52.1111 7.59187 51.0538 7.07631 49.7365 7.07631Z" fill="#3C3C3C"/>
<path d="M59.6695 5.71631V6.96965H61.7235V7.18298H59.6695V20.303H57.8495V7.18298H57.3035V6.96965H57.8495V5.71631C57.8495 3.77853 58.2568 2.40076 59.0715 1.58298C59.8862 0.747425 61.2035 0.320757 63.0235 0.302979V0.516313C61.8275 0.53409 60.9695 0.951868 60.4495 1.76965C59.9295 2.56965 59.6695 3.8852 59.6695 5.71631Z" fill="#3C3C3C"/>
<path d="M65.3206 13.7963C65.3206 16.0008 65.6933 17.6185 66.4386 18.6496C67.2013 19.6808 68.198 20.1963 69.4286 20.1963C71.162 20.1963 72.7046 19.9296 74.0566 19.3963L74.1346 19.583C72.748 20.1341 71.1793 20.4096 69.4286 20.4096C67.6953 20.4096 66.2826 19.8763 65.1906 18.8096C64.0986 17.743 63.5526 16.0985 63.5526 13.8763C63.5526 11.6541 64.1246 9.92965 65.2686 8.70298C66.4126 7.47631 67.8686 6.86298 69.6366 6.86298C71.058 6.86298 72.254 7.29854 73.2246 8.16965C74.1953 9.04076 74.6806 10.3296 74.6806 12.0363C74.6806 12.1252 74.6806 12.2141 74.6806 12.303H65.3986C65.3466 12.783 65.3206 13.2808 65.3206 13.7963ZM72.9126 12.0896C72.8953 10.383 72.5746 9.12076 71.9506 8.30298C71.3266 7.4852 70.5206 7.07631 69.5326 7.07631C68.5446 7.07631 67.6606 7.52076 66.8806 8.40965C66.118 9.29854 65.6326 10.5252 65.4246 12.0896H72.9126Z" fill="#3C3C3C"/>
<path d="M86.5301 20.303C85.8195 20.303 85.2735 20.143 84.8921 19.823C84.5281 19.503 84.3375 19.183 84.3201 18.863L84.2941 18.4096V10.0363C84.2941 8.63187 83.9388 7.73409 83.2281 7.34298C82.8641 7.1652 82.4135 7.07631 81.8761 7.07631C80.7668 7.07631 79.7701 7.52965 78.8861 8.43631C78.0021 9.3252 77.5601 10.1252 77.5601 10.8363V20.303H75.7401V6.96965H77.5601V10.0096C77.8548 9.2452 78.4008 8.53409 79.1981 7.87631C79.9955 7.20076 80.8708 6.86298 81.8241 6.86298C82.7775 6.86298 83.5488 6.96076 84.1381 7.15631C84.7448 7.33409 85.1868 7.59187 85.4641 7.92965C85.8975 8.48076 86.1141 9.19187 86.1141 10.063V18.4096C86.1141 18.9252 86.2095 19.3252 86.4001 19.6096C86.6081 19.8763 86.8161 20.0185 87.0241 20.0363L87.3101 20.0896H88.1161V20.303H86.5301Z" fill="#3C3C3C"/>
<path d="M92.0777 20.303C91.367 20.303 90.821 20.143 90.4397 19.823C90.0757 19.503 89.885 19.183 89.8677 18.863L89.8417 18.4096V6.96965H91.6617V18.4096C91.6617 18.9252 91.757 19.3252 91.9477 19.6096C92.1557 19.8763 92.355 20.0185 92.5457 20.0363L92.8577 20.0896H93.6637V20.303H92.0777ZM89.9977 3.98298C89.7897 3.76965 89.6857 3.50298 89.6857 3.18298C89.6857 2.86298 89.7897 2.59631 89.9977 2.38298C90.2057 2.15187 90.4657 2.03631 90.7777 2.03631C91.0897 2.03631 91.3497 2.15187 91.5577 2.38298C91.783 2.59631 91.8957 2.86298 91.8957 3.18298C91.8957 3.50298 91.783 3.76965 91.5577 3.98298C91.3497 4.19631 91.0897 4.30298 90.7777 4.30298C90.4657 4.30298 90.2057 4.19631 89.9977 3.98298Z" fill="#3C3C3C"/>
</svg>
