<svg width="41" height="40" viewBox="0 0 41 40" fill="none" xmlns="http://www.w3.org/2000/svg">
<g clip-path="url(#clip0_1_26)">
<path d="M0.775284 20.038C0.340374 22.5811 3.29019 21.4147 0.0945549 25.7742C-0.302536 26.3287 0.586193 26.7111 1.19128 26.8832C1.79638 27.0552 1.58837 27.1891 1.49382 27.6289C1.37553 28.0317 1.34331 28.4553 1.39928 28.8717C1.39928 29.1011 2.51492 28.8717 2.23128 29.0055C2.14759 29.0331 2.0704 29.0779 2.00449 29.1369C1.93859 29.1959 1.88537 29.268 1.84814 29.3486C1.81091 29.4293 1.79047 29.5168 1.78807 29.6058C1.78567 29.6948 1.80136 29.7834 1.83419 29.866C2.00437 30.1336 2.85528 30.7073 2.85528 31.3573C2.85528 36.6728 8.75492 29.7512 9.49237 32.7723C9.83274 34.2445 11.232 33.365 13.0284 33.0017C13.2175 29.0055 12.3098 27.2656 8.28219 24.0725C-5.95636 12.8487 28.5527 8.77609 34.1498 8.33632L33.8473 9.73211C33.4691 11.5294 33.3367 11.4147 34.6226 10.1528L38.7258 6.21395C41.0327 3.97685 40.6167 4.58871 37.3644 3.25028L30.8218 0.516052C29.1956 -0.172285 29.2335 -0.344369 30.2735 1.16615L31.408 2.92523C23.088 3.93861 2.17456 8.89081 0.775284 20.1336V20.038ZM12.7447 34.1872C12.3674 34.1871 11.9939 34.2631 11.646 34.4109C11.2982 34.5586 10.9829 34.775 10.7188 35.0474C10.4547 35.3198 10.2469 35.6428 10.1078 35.9974C9.96862 36.352 9.90083 36.7312 9.90837 37.1126C9.90837 37.8733 10.2072 38.6028 10.7391 39.1406C11.271 39.6785 11.9925 39.9807 12.7447 39.9807C13.5038 39.9858 14.234 39.6871 14.776 39.1497C15.3181 38.6124 15.6279 37.8801 15.6378 37.1126C15.6403 36.7277 15.5672 36.3462 15.4227 35.9901C15.2782 35.634 15.0652 35.3105 14.7961 35.0384C14.5269 34.7662 14.207 34.5508 13.8548 34.4047C13.5027 34.2586 13.1254 34.1846 12.7447 34.1872Z" fill="#2773BC"/>
</g>
<defs>
<clipPath id="clip0_1_26">
<rect width="40.1818" height="40" fill="white" transform="matrix(-1 0 0 1 40.1818 0)"/>
</clipPath>
</defs>
</svg>
